<?xml version="1.0" standalone="no"?>
<!DOCTYPE svg PUBLIC "-//W3C//DTD SVG 20010904//EN"
 "http://www.w3.org/TR/2001/REC-SVG-20010904/DTD/svg10.dtd">
<svg version="1.0" xmlns="http://www.w3.org/2000/svg"
 width="512.000000pt" height="512.000000pt" viewBox="0 0 512.000000 512.000000"
 preserveAspectRatio="xMidYMid meet">

<g transform="translate(0.000000,512.000000) scale(0.100000,-0.100000)"
fill="#000000" stroke="none">
<path d="M2810 5005 c-57 -18 -114 -65 -143 -118 l-22 -42 -3 -1103 -2 -1102
1102 2 1103 3 45 25 c59 33 106 97 119 162 9 43 8 71 -4 138 -190 1023 -972
1819 -1990 2025 -139 28 -144 29 -205 10z m205 -175 c909 -201 1605 -891 1810
-1796 49 -217 42 -228 -149 -232 l-132 -3 -12 84 c-19 129 -75 320 -135 461
-219 510 -656 923 -1165 1100 l-101 35 -21 -68 c-11 -37 -20 -73 -20 -78 0 -5
46 -26 103 -47 161 -59 307 -139 470 -259 l67 -49 -49 -44 c-107 -96 -110
-238 -7 -340 97 -98 222 -100 327 -6 28 25 51 43 54 41 17 -18 122 -197 158
-271 73 -150 136 -352 162 -515 l7 -43 -791 0 -791 0 0 461 0 461 52 -46 c65
-56 130 -80 206 -74 73 5 118 27 192 94 33 30 72 57 85 60 24 6 25 9 25 85 0
76 -1 79 -23 79 -51 0 -116 -33 -181 -90 -101 -91 -130 -91 -226 -6 -33 30
-76 61 -95 70 l-35 17 0 236 0 236 43 -7 c23 -4 56 -9 72 -12 l31 -5 16 78 c9
43 15 79 14 80 -1 2 -40 9 -87 16 l-84 13 0 131 c0 115 2 134 19 152 24 27 72
27 191 1z m879 -1020 c26 -25 25 -76 -2 -102 -45 -45 -125 -13 -125 51 0 70
75 100 127 51z"/>
<path d="M3115 3425 c-52 -19 -130 -100 -144 -151 -27 -96 -7 -171 63 -240 53
-54 99 -74 166 -74 67 0 113 20 166 74 70 70 90 144 63 241 -15 54 -100 139
-154 154 -53 15 -111 13 -160 -4z m137 -172 c23 -20 24 -80 1 -105 -20 -23
-80 -24 -105 -1 -23 20 -24 80 -1 105 20 23 80 24 105 1z"/>
<path d="M3920 3200 l0 -80 80 0 80 0 0 80 0 80 -80 0 -80 0 0 -80z"/>
<path d="M3600 3040 l0 -80 80 0 80 0 0 80 0 80 -80 0 -80 0 0 -80z"/>
<path d="M2057 4695 c-761 -123 -1400 -593 -1737 -1280 -108 -219 -178 -444
-217 -695 -24 -160 -24 -501 1 -655 64 -396 209 -747 432 -1045 376 -502 908
-820 1534 -917 158 -24 490 -24 650 0 767 117 1414 585 1757 1272 108 216 183
454 218 695 32 215 7 309 -99 375 l-49 30 -1034 3 -1033 2 -2 1033 -3 1034
-30 49 c-19 30 -49 60 -79 79 -44 27 -59 30 -135 32 -47 1 -125 -4 -174 -12z
m234 -164 c23 -18 24 -26 27 -154 l4 -135 -79 -7 c-263 -23 -558 -117 -778
-250 -469 -283 -781 -734 -881 -1277 -34 -183 -29 -479 12 -674 140 -681 652
-1228 1318 -1409 282 -77 601 -86 878 -24 554 122 1011 480 1259 984 56 115
120 290 134 366 l7 35 -71 14 c-39 7 -74 14 -77 14 -4 1 -11 -10 -15 -24 -60
-204 -104 -309 -184 -445 -201 -342 -532 -610 -907 -736 -133 -45 -246 -67
-405 -81 -307 -26 -611 35 -893 178 -167 86 -292 176 -425 309 -133 133 -223
258 -309 425 -226 445 -244 951 -50 1415 l15 36 56 -50 c69 -61 132 -85 211
-79 73 5 118 27 192 94 33 30 72 57 85 60 24 6 25 9 25 85 0 76 -1 79 -23 79
-51 0 -116 -33 -181 -90 -101 -90 -131 -91 -224 -8 -31 28 -58 54 -60 58 -1 3
24 45 55 92 191 286 470 509 790 632 147 57 368 106 477 106 l46 0 0 -875 0
-875 879 0 879 0 -5 -47 c-2 -27 -5 -60 -7 -75 -3 -29 0 -30 112 -44 l52 -7 0
34 c0 19 3 58 6 87 l7 52 118 0 c188 0 198 -10 180 -172 -80 -712 -535 -1355
-1186 -1678 -312 -155 -614 -224 -965 -223 -206 1 -336 17 -522 63 -763 192
-1369 798 -1558 1559 -47 190 -62 316 -63 526 0 394 96 753 289 1083 340 576
894 954 1552 1056 127 20 175 20 203 -3z"/>
<path d="M2000 3600 l0 -80 80 0 80 0 0 80 0 80 -80 0 -80 0 0 -80z"/>
<path d="M1760 3040 l0 -80 80 0 80 0 0 80 0 80 -80 0 -80 0 0 -80z"/>
<path d="M1195 2625 c-52 -19 -130 -100 -144 -151 -27 -96 -7 -171 63 -240 70
-70 144 -90 241 -63 54 15 139 100 154 154 27 97 7 171 -63 241 -72 72 -157
92 -251 59z m139 -175 c26 -25 25 -76 -2 -102 -45 -45 -125 -13 -125 51 0 70
75 100 127 51z"/>
<path d="M1995 2465 c-52 -19 -130 -100 -144 -151 -27 -96 -7 -171 63 -240 70
-70 144 -90 241 -63 54 15 139 100 154 154 27 97 7 171 -63 241 -72 72 -157
92 -251 59z m137 -172 c23 -20 24 -80 1 -105 -20 -23 -80 -24 -105 -1 -23 20
-24 80 -1 105 20 23 80 24 105 1z"/>
<path d="M2960 2000 l0 -80 80 0 80 0 0 80 0 80 -80 0 -80 0 0 -80z"/>
<path d="M1520 1920 l0 -80 80 0 80 0 0 80 0 80 -80 0 -80 0 0 -80z"/>
<path d="M3435 1985 c-52 -19 -130 -100 -144 -151 -27 -96 -7 -171 63 -240 70
-70 144 -90 241 -63 54 15 139 100 154 154 27 97 7 171 -63 241 -72 72 -157
92 -251 59z m137 -172 c23 -20 24 -80 1 -105 -20 -23 -80 -24 -105 -1 -23 20
-24 80 -1 105 20 23 80 24 105 1z"/>
<path d="M2480 1760 l0 -80 80 0 80 0 0 80 0 80 -80 0 -80 0 0 -80z"/>
<path d="M1120 1680 l0 -80 80 0 80 0 0 80 0 80 -80 0 -80 0 0 -80z"/>
<path d="M1755 1425 c-52 -19 -130 -100 -144 -151 -27 -96 -7 -171 63 -240 70
-70 144 -90 241 -63 54 15 139 100 154 154 27 97 7 171 -63 241 -72 72 -157
92 -251 59z m139 -175 c26 -25 25 -76 -2 -102 -45 -45 -125 -13 -125 51 0 70
75 100 127 51z"/>
<path d="M2480 1201 c0 -75 1 -79 25 -85 13 -3 55 -33 92 -66 79 -71 138 -94
221 -88 73 5 118 27 192 94 33 30 72 57 85 60 24 6 25 9 25 85 0 76 -1 79 -23
79 -51 0 -116 -33 -181 -90 -103 -92 -129 -92 -232 0 -65 57 -130 90 -181 90
-22 0 -23 -3 -23 -79z"/>
</g>
</svg>
